<?xml version="1.0" standalone="no"?>
<!DOCTYPE svg PUBLIC "-//W3C//DTD SVG 20010904//EN"
 "http://www.w3.org/TR/2001/REC-SVG-20010904/DTD/svg10.dtd">
<svg version="1.0" xmlns="http://www.w3.org/2000/svg"
 width="300.000000pt" height="279.000000pt" viewBox="0 0 300.000000 279.000000"
 preserveAspectRatio="xMidYMid meet">
<metadata>
Created by potrace 1.10, written by Peter Selinger 2001-2011
</metadata>
<g transform="translate(0.000000,279.000000) scale(0.100000,-0.100000)"
fill="#000000" stroke="none">
<path d="M890 2775 c0 -10 10 -15 31 -15 22 0 32 -5 36 -19 5 -21 29 -35 44
-26 5 4 99 8 210 11 111 2 210 9 220 14 11 7 27 7 44 0 34 -13 75 -13 75 0 0
6 11 10 24 10 14 0 28 -4 31 -10 7 -12 42 -13 49 -2 3 5 2 18 -1 30 -5 22 -9
22 -199 22 -145 0 -193 -3 -191 -12 1 -6 -6 -14 -15 -16 -11 -2 -18 2 -18 12
0 22 -85 23 -94 1 -3 -10 -19 -15 -46 -15 -27 0 -43 5 -46 15 -5 11 -24 15
-80 15 -59 0 -74 -3 -74 -15z"/>
<path d="M1815 2780 c-3 -5 0 -13 7 -15 25 -10 253 -1 251 10 -4 14 -249 19
-258 5z"/>
<path d="M2562 2773 c5 -25 28 -28 28 -4 0 12 -6 21 -16 21 -9 0 -14 -7 -12
-17z"/>
<path d="M2670 2776 c0 -17 54 -40 75 -32 8 3 15 15 15 26 0 17 -6 20 -45 20
-32 0 -45 -4 -45 -14z"/>
<path d="M842 2723 c-6 -2 -10 -9 -6 -14 6 -11 61 -11 89 0 16 7 14 9 -14 14
-37 8 -50 8 -69 0z"/>
<path d="M2925 2711 c-17 -7 -14 -10 20 -20 53 -15 55 -14 55 9 0 15 -6 20
-27 19 -16 0 -37 -4 -48 -8z"/>
<path d="M1930 2670 c-12 -7 -12 -12 4 -29 14 -16 23 -18 37 -10 23 12 25 35
3 43 -21 8 -26 7 -44 -4z"/>
<path d="M1105 2610 c-4 -6 11 -10 37 -10 31 0 39 3 28 10 -20 13 -57 13 -65
0z"/>
<path d="M2086 2564 c-22 -20 -35 -24 -60 -18 -17 3 -35 7 -41 8 -5 0 -11 -10
-13 -24 -3 -24 -1 -25 63 -26 36 0 65 2 65 6 0 4 35 8 77 9 102 2 116 18 24
27 -48 4 -71 11 -71 20 0 23 -15 23 -44 -2z"/>
<path d="M675 2570 c-4 -6 -4 -23 0 -37 9 -38 19 -364 16 -531 l-3 -144 35 3
c20 2 39 0 43 -4 4 -4 13 -7 21 -7 21 0 15 29 -13 55 -20 19 -25 31 -22 60 3
33 7 39 38 49 29 9 37 18 44 49 14 57 0 72 -64 71 -44 -2 -50 0 -45 15 4 9 10
58 12 109 7 115 14 122 123 122 53 0 82 5 96 15 17 14 9 15 -84 13 -98 -3
-105 -2 -123 21 -10 13 -19 27 -19 32 0 20 51 31 164 35 66 3 128 5 136 5 20
1 60 21 60 30 0 8 -21 10 -235 29 -71 7 -140 14 -151 17 -12 2 -25 0 -29 -7z"/>
<path d="M1422 2544 c-15 -10 -33 -13 -51 -9 -24 5 -32 1 -51 -24 -15 -22 -30
-31 -49 -31 -15 0 -36 -9 -46 -21 -16 -17 -17 -24 -7 -51 12 -34 9 -48 -13
-48 -8 0 -18 -7 -23 -16 -12 -22 -52 -9 -52 17 0 21 25 26 36 7 8 -12 22 12
23 40 2 23 -44 12 -73 -18 -16 -17 -33 -30 -38 -30 -14 0 -9 -37 7 -50 17 -14
84 -7 95 10 8 13 138 -3 204 -25 49 -17 118 -13 143 7 8 6 15 3 21 -8 8 -15
11 -15 32 6 l23 23 -28 -6 c-16 -2 -36 -1 -44 3 -9 5 -27 11 -41 14 -14 3 -35
14 -47 25 -30 28 -150 41 -159 17 -7 -17 -29 -22 -38 -7 -11 17 6 41 33 48 14
3 36 13 49 21 21 14 27 14 53 -2 16 -9 37 -15 47 -11 12 3 26 -2 37 -15 23
-26 56 -26 78 0 9 11 24 20 32 20 10 0 13 5 9 11 -4 7 -23 9 -50 5 -34 -4 -45
-2 -53 11 -7 14 -12 15 -24 5 -11 -10 -17 -9 -27 2 -6 9 -9 20 -5 26 8 13 42
13 50 1 3 -5 31 -13 63 -16 80 -9 89 -13 122 -48 l29 -31 10 27 c13 34 31 35
31 2 0 -18 7 -28 25 -35 15 -6 25 -17 25 -29 0 -11 9 -22 19 -26 11 -3 22 -12
25 -20 7 -20 26 -19 26 0 0 21 37 19 57 -4 12 -14 21 -17 33 -11 21 11 30 4
30 -27 0 -13 4 -23 9 -23 10 0 41 -78 41 -103 0 -9 -4 -17 -10 -17 -5 0 -10 9
-10 20 0 35 -29 23 -36 -15 -3 -19 -10 -38 -15 -40 -5 -3 -6 -18 -3 -33 6 -32
-10 -62 -25 -47 -6 6 -13 25 -17 42 -6 28 -3 34 20 44 23 11 26 17 21 41 -4
17 -2 35 5 43 10 13 8 15 -12 15 -14 0 -28 -3 -32 -7 -4 -5 -18 -8 -29 -8 -32
0 -30 -39 1 -43 23 -3 23 -4 6 -23 -16 -18 -18 -18 -53 0 -86 44 -147 71 -163
71 -9 0 -20 5 -23 10 -10 15 -35 12 -35 -5 0 -16 -26 -21 -32 -7 -1 5 -20 12
-41 15 -48 7 -46 -13 3 -29 25 -8 29 -12 15 -17 -32 -13 -57 -7 -62 13 -4 16
-14 20 -57 21 -28 1 -67 1 -87 0 -22 -2 -40 4 -48 13 -8 9 -24 16 -37 16 -12
0 -26 5 -30 11 -4 8 0 9 15 4 15 -4 21 -2 21 8 0 9 -10 15 -22 15 -13 0 -42 3
-66 6 -32 4 -44 2 -48 -9 -10 -25 -31 -17 -48 19 -14 30 -33 46 -55 46 -3 0
-13 -20 -20 -45 -10 -35 -11 -48 -1 -59 8 -11 9 -20 0 -36 -12 -23 -6 -40 16
-40 19 0 18 -13 -6 -41 l-20 -24 -19 25 c-19 24 -20 24 -40 6 -16 -14 -20 -27
-16 -50 3 -17 1 -87 -4 -156 -6 -99 -5 -130 6 -147 16 -28 17 -70 1 -75 -10
-4 -9 -20 2 -74 7 -38 14 -96 15 -130 1 -33 5 -66 10 -74 18 -29 25 26 26 208
0 171 2 194 21 228 11 22 29 49 40 61 13 13 19 30 15 42 -3 11 1 25 7 30 7 6
25 35 40 66 33 64 72 92 136 94 25 1 59 3 75 4 24 2 29 -2 27 -16 -3 -15 2
-17 35 -11 32 5 43 2 65 -19 15 -14 36 -28 47 -32 10 -3 25 -12 31 -20 7 -8
16 -15 21 -15 13 0 11 34 -3 48 -9 9 -9 15 0 24 9 9 16 8 29 -5 10 -9 41 -21
68 -27 41 -9 138 -48 195 -79 8 -4 24 -27 36 -51 12 -24 34 -49 48 -57 24 -13
31 -25 27 -47 -1 -5 3 -22 10 -38 9 -21 9 -35 1 -53 -6 -13 -8 -27 -3 -29 4
-3 11 -27 14 -54 6 -50 35 -122 49 -122 10 0 12 15 12 126 1 73 5 96 19 111
20 23 23 117 7 204 -10 51 -9 54 17 75 25 20 28 28 27 81 0 68 -27 117 -106
197 -26 26 -48 56 -48 66 0 10 -9 21 -20 25 -11 3 -36 26 -57 50 -47 54 -129
82 -181 63 -28 -11 -33 -10 -46 7 -12 16 -16 17 -30 6 -18 -15 -131 -8 -152 9
-6 6 -19 3 -32 -6z m412 -170 c4 -9 5 -19 2 -21 -7 -7 -46 17 -46 27 0 17 37
11 44 -6z m-221 -230 c-9 -15 -19 -22 -21 -16 -2 6 3 18 10 26 22 25 30 18 11
-10z m59 -11 c2 -5 26 -19 53 -33 43 -21 47 -25 26 -28 -13 -2 -26 1 -30 6 -3
5 -16 12 -28 16 -13 4 -23 12 -23 17 0 5 -7 9 -15 9 -8 0 -15 5 -15 10 0 12
27 14 32 3z m330 -55 c-6 -6 -15 -8 -19 -4 -4 4 -1 11 7 16 19 12 27 3 12 -12z
m-18 -155 c8 -61 -2 -67 -39 -27 -29 31 -31 47 -10 64 8 7 15 20 15 28 0 14 2
14 14 2 7 -8 17 -39 20 -67z"/>
<path d="M2941 2541 c-23 -15 -5 -41 29 -41 25 0 30 4 30 25 0 19 -5 25 -22
25 -13 0 -29 -4 -37 -9z"/>
<path d="M1603 2383 c-9 -3 -9 -11 3 -29 12 -17 21 -21 31 -15 10 5 23 1 39
-14 28 -26 30 -43 7 -61 -16 -12 -16 -13 8 -14 15 0 32 -7 39 -15 16 -20 56
-19 64 1 4 9 -7 29 -29 51 -19 20 -35 40 -35 44 0 4 -15 13 -34 19 -19 6 -37
17 -40 25 -5 15 -29 18 -53 8z"/>
<path d="M1617 2294 c-8 -8 1 -24 14 -24 5 0 9 7 9 15 0 15 -12 20 -23 9z"/>
<path d="M1841 2274 c-22 -22 -22 -24 -4 -31 10 -3 26 -14 36 -25 10 -10 22
-18 27 -18 19 0 9 55 -13 77 l-23 21 -23 -24z"/>
<path d="M2910 2253 c-14 -2 -32 -7 -40 -10 -12 -4 -210 -9 -520 -12 -14 0
-61 1 -105 2 -76 2 -80 1 -83 -21 -4 -26 22 -40 47 -25 9 5 27 6 41 2 14 -4
43 -7 66 -8 22 -1 45 -6 50 -11 7 -7 20 -7 35 -2 13 5 51 12 84 16 33 4 81 13
107 19 31 8 110 12 228 11 l180 -3 0 25 c0 21 -4 24 -32 23 -18 -1 -44 -4 -58
-6z"/>
<path d="M930 2184 c0 -17 22 -14 28 4 2 7 -3 12 -12 12 -9 0 -16 -7 -16 -16z"/>
<path d="M446 2139 c-19 -15 -26 -30 -26 -54 0 -65 61 -88 100 -38 25 32 21
77 -8 99 -24 18 -35 17 -66 -7z"/>
<path d="M892 2138 c5 -15 37 -18 41 -3 1 6 -9 12 -22 13 -16 3 -22 -1 -19
-10z"/>
<path d="M2663 2093 c-28 -5 -29 -24 -4 -47 11 -10 21 -32 23 -50 4 -42 33
-43 34 0 1 17 4 43 8 57 5 20 2 29 -13 37 -11 5 -21 9 -23 9 -2 -1 -13 -4 -25
-6z"/>
<path d="M2895 2020 c-9 -14 10 -36 35 -43 23 -6 24 -6 8 28 -12 26 -32 33
-43 15z"/>
<path d="M56 1922 c-10 -17 17 -184 31 -189 8 -3 17 -3 20 1 10 10 4 78 -9 93
-7 9 -6 14 6 19 10 4 23 -3 36 -17 l20 -24 30 35 c25 29 31 32 40 20 5 -8 10
-21 10 -28 0 -8 9 -12 23 -10 28 4 37 46 10 54 -10 3 -27 10 -37 16 -11 6 -42
14 -70 19 -28 4 -63 11 -77 14 -15 4 -29 3 -33 -3z"/>
<path d="M2166 1889 c-9 -45 -7 -132 3 -148 20 -31 31 1 27 81 -4 87 -19 120
-30 67z"/>
<path d="M2970 1875 c0 -8 7 -15 15 -15 8 0 15 7 15 15 0 8 -7 15 -15 15 -8 0
-15 -7 -15 -15z"/>
<path d="M1705 1860 c-11 -5 -37 -9 -57 -9 -20 -1 -57 -10 -82 -21 -36 -15
-46 -24 -46 -43 0 -12 -5 -28 -12 -35 -14 -14 -4 -16 20 -3 9 6 51 20 92 32
65 19 79 20 115 10 70 -22 90 -20 90 9 0 20 -10 30 -45 47 -51 25 -48 25 -75
13z"/>
<path d="M1087 1804 c-22 -15 -37 -32 -35 -41 4 -22 55 -25 84 -7 19 13 32 14
74 5 28 -6 69 -11 90 -11 35 0 40 -3 40 -22 1 -32 26 -62 45 -55 22 9 18 37
-9 58 -14 11 -26 29 -28 40 -4 27 -53 44 -150 53 -68 6 -76 4 -111 -20z"/>
<path d="M2433 1823 c-18 -7 -16 -24 5 -39 28 -22 44 -17 40 13 -3 27 -20 37
-45 26z"/>
<path d="M795 1739 c-10 -101 -8 -138 11 -198 16 -51 36 88 24 172 -14 95 -27
104 -35 26z"/>
<path d="M1819 1736 c-11 -11 -29 -12 -89 -4 -53 7 -89 7 -127 -2 -29 -6 -57
-9 -63 -5 -6 4 -10 -5 -10 -20 0 -16 7 -28 18 -31 53 -18 72 -28 72 -40 0 -10
15 -14 58 -14 45 1 53 3 39 11 -10 6 -29 8 -41 5 -26 -6 -66 18 -66 40 0 18
10 18 24 -1 9 -12 17 -13 46 -4 48 15 130 27 130 18 0 -11 52 -21 62 -11 5 5
3 14 -7 22 -8 7 -15 18 -15 26 0 20 -15 25 -31 10z"/>
<path d="M2061 1726 c-9 -11 -11 -26 -5 -51 12 -50 28 -48 32 4 4 49 -8 70
-27 47z"/>
<path d="M1247 1719 c-10 -6 -29 -8 -43 -5 -29 8 -84 -18 -84 -39 0 -11 12
-15 47 -15 45 0 46 0 28 -20 -16 -18 -17 -20 -1 -26 11 -4 22 0 30 11 9 13 15
15 20 7 12 -20 38 -14 32 6 -4 12 1 26 14 37 24 22 26 41 4 49 -21 8 -26 7
-47 -5z"/>
<path d="M146 1692 c-8 -13 11 -35 23 -28 16 10 14 36 -3 36 -8 0 -17 -4 -20
-8z"/>
<path d="M444 1676 c-4 -10 -2 -22 4 -28 8 -8 13 -7 18 6 4 10 2 22 -4 28 -8
8 -13 7 -18 -6z"/>
<path d="M617 1673 c-10 -9 -9 -23 2 -23 5 0 11 7 15 15 5 15 -5 20 -17 8z"/>
<path d="M1456 1635 c-8 -22 7 -48 38 -65 29 -15 45 -8 28 12 -5 7 -12 24 -14
38 -4 30 -42 40 -52 15z"/>
<path d="M1020 1620 c0 -19 3 -21 12 -12 9 9 9 15 0 24 -9 9 -12 7 -12 -12z"/>
<path d="M1354 1600 c-11 -26 -28 -46 -48 -57 -17 -9 -36 -22 -41 -30 -9 -12
-24 -14 -99 -12 -31 1 -52 -14 -42 -30 4 -6 20 -11 36 -11 39 0 60 -9 60 -26
0 -19 39 -33 71 -27 19 3 30 -1 42 -21 34 -51 177 -39 234 21 12 13 26 23 32
23 5 0 11 6 14 13 3 9 10 9 30 -2 35 -19 42 -10 27 34 -13 38 -68 75 -112 75
l-23 0 22 -18 c12 -9 25 -29 28 -43 8 -34 -24 -59 -76 -59 -24 0 -39 -5 -43
-15 -7 -20 -40 -19 -60 1 -12 12 -26 14 -56 9 -37 -6 -41 -5 -50 20 -12 31 4
57 75 128 37 37 41 59 12 65 -11 2 -22 -10 -33 -38z"/>
<path d="M2070 1589 c-7 -12 -10 -55 -8 -101 3 -75 5 -81 30 -94 15 -8 38 -14
53 -14 21 0 25 5 26 33 0 17 4 41 8 52 8 19 -20 85 -53 128 -18 23 -43 22 -56
-4z"/>
<path d="M445 1570 c-4 -6 -3 -16 3 -22 6 -6 12 -6 17 2 4 6 3 16 -3 22 -6 6
-12 6 -17 -2z"/>
<path d="M1700 1530 c0 -5 16 -10 35 -10 19 0 35 5 35 10 0 6 -16 10 -35 10
-19 0 -35 -4 -35 -10z"/>
<path d="M804 1489 c-12 -20 -9 -120 4 -146 10 -19 8 -24 -14 -42 -15 -12 -41
-21 -61 -21 l-35 0 4 58 3 57 -31 3 c-19 2 -36 -3 -44 -12 -16 -20 -34 -20
-51 0 -11 14 -41 15 -251 10 -145 -3 -246 -10 -259 -17 -11 -6 -32 -8 -45 -5
-23 6 -24 4 -24 -43 l0 -50 48 -3 c26 -2 128 0 227 4 120 5 196 4 228 -3 34
-8 52 -8 59 -1 14 14 83 -40 93 -71 6 -22 6 -22 15 -2 4 11 11 29 14 39 5 15
9 17 18 8 7 -7 36 -12 65 -12 40 0 58 -5 74 -21 l20 -20 -20 -6 c-25 -6 -24
-5 -9 -38 6 -14 19 -25 31 -25 18 0 46 -25 47 -42 0 -11 -68 -10 -74 1 -4 5
-26 9 -51 9 -34 0 -48 -4 -55 -19 -17 -31 -48 -24 -59 14 -7 25 -9 27 -10 9
-1 -24 -32 -44 -39 -24 -2 7 -11 12 -20 12 -15 -1 -15 -2 2 -15 23 -17 12 -37
-18 -29 -14 3 -31 -2 -48 -15 -14 -12 -35 -21 -46 -21 -11 0 -22 -7 -25 -15
-4 -8 -21 -21 -39 -29 -18 -8 -54 -34 -81 -59 -26 -25 -65 -60 -86 -79 -34
-29 -101 -139 -101 -165 0 -6 -13 -29 -30 -51 -16 -23 -30 -46 -30 -52 0 -5
-9 -10 -20 -10 -13 0 -20 -7 -20 -20 0 -13 -10 -24 -25 -30 -31 -12 -41 -35
-25 -56 10 -11 10 -18 2 -26 -22 -22 -14 -58 16 -70 l27 -11 -25 -6 c-20 -6
-26 -14 -28 -45 l-3 -38 25 19 c14 10 26 26 26 36 0 9 5 26 12 36 9 15 9 25 0
46 -18 40 -15 45 26 45 20 0 46 8 58 18 22 18 54 80 54 105 0 8 7 20 15 27 8
7 15 18 15 25 0 7 7 18 15 25 8 7 15 21 15 30 0 26 32 79 51 85 9 3 29 17 44
31 15 13 51 43 81 66 30 23 59 49 65 60 5 10 18 18 28 18 10 0 24 7 31 15 7 8
26 15 42 15 16 0 45 7 65 15 19 8 64 15 99 15 46 0 75 6 105 22 24 12 59 21
78 21 42 -1 75 26 64 53 -5 14 -2 16 16 11 20 -5 33 -1 70 20 2 1 -10 17 -28
35 -17 17 -31 37 -31 44 0 6 -7 17 -15 24 -8 7 -15 22 -15 34 0 12 -7 32 -16
45 -14 20 -22 22 -55 17 -21 -3 -49 -2 -63 4 -26 9 -26 10 -11 48 16 40 8 92
-14 92 -6 0 -17 12 -24 26 -11 21 -16 24 -23 13z"/>
<path d="M2406 1454 c-9 -8 -16 -24 -16 -35 0 -23 -22 -23 333 -7 l277 12 0
23 0 23 -289 0 c-250 0 -292 -2 -305 -16z"/>
<path d="M1830 1422 c0 -11 7 -25 15 -32 12 -10 15 -9 15 4 0 10 -7 24 -15 32
-13 14 -15 13 -15 -4z"/>
<path d="M2263 1433 c-7 -2 -13 -11 -13 -19 0 -8 6 -14 13 -14 21 0 40 17 33
29 -8 12 -13 12 -33 4z"/>
<path d="M1991 1363 c-6 -20 -8 -39 -6 -42 3 -2 25 -7 51 -11 56 -9 66 6 39
56 -14 26 -25 34 -46 34 -24 0 -30 -6 -38 -37z"/>
<path d="M1641 1366 c-10 -11 -8 -17 6 -25 36 -21 -11 -31 -158 -31 -118 0
-149 -3 -159 -15 -18 -22 -49 -18 -59 8 -12 31 -45 59 -62 52 -8 -3 -23 -18
-33 -32 -18 -24 -18 -27 -3 -38 10 -7 17 -16 17 -21 0 -5 33 -11 74 -12 60 -2
75 1 80 14 6 15 50 16 231 3 42 -3 121 15 148 34 l28 19 -27 29 c-30 31 -65
37 -83 15z"/>
<path d="M2198 1363 c-7 -10 -19 -18 -25 -19 -7 -1 -20 -2 -28 -2 -8 -1 -15
-8 -15 -16 0 -40 112 -66 124 -28 8 26 -8 77 -26 80 -9 2 -22 -5 -30 -15z"/>
<path d="M2840 1320 c0 -19 39 -49 57 -44 23 6 51 -12 38 -24 -6 -6 -61 -3
-137 6 -115 14 -127 18 -130 36 -2 15 -10 21 -28 21 -22 0 -25 -4 -23 -35 1
-19 4 -124 8 -234 3 -109 8 -202 11 -207 3 -5 13 -9 23 -9 10 0 24 -7 31 -15
7 -8 17 -15 22 -15 5 0 14 -4 21 -10 62 -51 98 -83 146 -129 l56 -54 -2 -68
c-2 -50 1 -70 11 -76 8 -4 16 -26 18 -48 2 -28 8 -41 21 -43 14 -3 17 4 17 42
0 38 -3 46 -19 46 -12 0 -20 9 -24 27 -6 34 -1 43 24 43 17 0 19 7 19 75 0 68
-2 75 -20 75 -11 0 -20 7 -20 15 0 8 -11 22 -25 31 -13 9 -27 24 -30 33 -3 10
-17 24 -32 32 -33 17 -63 45 -63 59 0 5 18 21 41 36 30 19 56 26 95 27 37 1
54 5 54 14 0 20 -124 18 -140 -2 -9 -11 -33 -15 -87 -15 -81 0 -78 -3 -88 74
l-7 49 36 -6 c20 -3 43 -13 52 -21 20 -20 104 -20 159 -1 22 8 48 15 58 15 23
0 22 17 -3 25 -11 3 -20 15 -20 26 0 12 7 19 20 19 19 0 20 7 20 118 l0 118
-80 2 c-47 1 -80 -2 -80 -8z m-87 -134 c37 -21 49 -22 102 -15 111 15 109 15
113 -4 5 -26 -47 -75 -83 -77 -16 -1 -67 -2 -112 -1 l-83 1 0 53 c0 48 5 67
17 67 3 0 23 -11 46 -24z"/>
<path d="M1923 1283 c-4 -10 -16 -26 -28 -36 -19 -16 -19 -18 -2 -27 9 -6 17
-18 17 -26 0 -20 -104 -119 -146 -139 -18 -8 -34 -21 -37 -28 -3 -9 -9 -9 -25
0 -17 10 -23 10 -29 0 -4 -6 -17 -17 -28 -23 -35 -20 -24 -39 23 -40 37 -2 55
6 118 47 41 28 80 61 86 74 13 29 26 32 35 9 3 -9 -3 -23 -16 -35 -11 -11 -21
-27 -21 -35 0 -9 -13 -33 -30 -54 -16 -21 -30 -45 -30 -53 0 -9 -9 -18 -19
-22 -11 -3 -24 -20 -30 -36 -6 -17 -20 -33 -31 -36 -11 -3 -20 -10 -20 -17 0
-6 -13 -18 -29 -26 -33 -17 -146 -148 -137 -158 9 -9 59 11 124 50 64 39 212
210 212 246 0 8 6 26 14 40 29 58 43 128 40 206 -3 64 0 82 13 91 10 7 14 19
10 29 -8 21 -26 21 -34 -1z"/>
<path d="M1740 1221 c0 -12 5 -21 10 -21 6 0 10 6 10 14 0 8 -4 18 -10 21 -5
3 -10 -3 -10 -14z"/>
<path d="M1415 1221 c-21 -4 -35 -18 -35 -38 0 -9 19 -13 63 -13 65 0 87 11
87 41 0 14 -9 17 -48 16 -26 -1 -57 -4 -67 -6z"/>
<path d="M1785 1209 c-4 -6 -5 -12 -2 -15 7 -7 37 7 37 17 0 13 -27 11 -35 -2z"/>
<path d="M764 1185 c-18 -14 -18 -14 3 -15 23 0 39 15 25 24 -5 3 -18 -1 -28
-9z"/>
<path d="M1973 1184 c-3 -9 6 -28 26 -48 17 -17 31 -39 31 -47 0 -15 36 -33
87 -44 18 -4 35 -11 39 -16 3 -5 21 -16 40 -24 28 -12 39 -12 55 -2 15 9 23 9
39 -1 11 -6 27 -12 35 -12 9 0 30 -15 48 -34 23 -24 41 -34 64 -34 41 -1 49
12 29 43 -9 13 -16 31 -16 39 0 8 -24 35 -52 61 -29 26 -55 57 -58 69 -6 24
-55 35 -73 17 -17 -17 -39 -13 -71 13 -24 20 -33 22 -52 14 -18 -8 -34 -7 -67
6 -54 20 -96 21 -104 0z m215 -82 c2 -7 -3 -12 -12 -12 -9 0 -16 7 -16 16 0
17 22 14 28 -4z m52 -42 c0 -5 -7 -10 -15 -10 -8 0 -15 5 -15 10 0 6 7 10 15
10 8 0 15 -4 15 -10z"/>
<path d="M1103 1060 c-3 -11 -9 -20 -13 -20 -4 0 -12 -11 -18 -25 -7 -14 -20
-25 -31 -25 -18 0 -30 -20 -52 -88 -10 -31 -1 -52 22 -52 24 0 35 -43 21 -76
-12 -25 -7 -54 9 -54 5 0 17 -8 27 -17 10 -10 35 -27 57 -38 22 -11 43 -24 47
-30 4 -5 9 -7 13 -4 3 3 -7 27 -21 53 -24 42 -26 55 -21 111 6 63 33 186 46
215 9 17 -41 70 -65 70 -9 0 -18 -9 -21 -20z m-31 -130 c5 -32 -7 -49 -22 -34
-10 10 -1 64 10 64 4 0 10 -14 12 -30z"/>
<path d="M1996 1052 c-3 -5 4 -16 15 -25 10 -9 19 -23 19 -31 0 -8 7 -16 15
-20 8 -3 15 -16 15 -30 0 -13 7 -26 15 -30 19 -7 19 -25 -1 -47 -17 -18 -13
-49 5 -49 10 0 61 79 61 93 0 4 -6 7 -14 7 -20 0 -30 18 -18 33 8 9 -3 22 -39
47 -27 19 -49 41 -49 48 0 14 -16 16 -24 4z"/>
<path d="M1452 1029 c-7 -8 -35 -13 -67 -13 -45 0 -55 -3 -55 -17 0 -24 39
-31 136 -23 61 5 88 11 99 24 20 22 10 29 -52 36 -33 4 -52 2 -61 -7z"/>
<path d="M1230 998 c0 -7 14 -24 30 -38 17 -14 39 -33 50 -42 19 -17 20 -17
20 0 0 38 -13 58 -46 75 -41 20 -54 21 -54 5z"/>
<path d="M1976 943 c-3 -21 -6 -55 -6 -75 0 -20 -4 -40 -10 -43 -5 -3 -10 -14
-10 -23 0 -29 40 21 50 62 9 39 2 116 -10 116 -4 0 -10 -17 -14 -37z"/>
<path d="M2184 915 c-7 -18 32 -54 59 -55 24 0 22 21 -3 27 -11 3 -20 14 -20
24 0 23 -28 25 -36 4z"/>
<path d="M715 909 c-10 -15 1 -23 20 -15 9 3 13 10 10 16 -8 13 -22 13 -30 -1z"/>
<path d="M890 906 c0 -11 9 -16 26 -16 31 0 28 23 -4 28 -15 2 -22 -2 -22 -12z"/>
<path d="M770 875 c0 -16 6 -25 15 -25 8 0 15 -4 15 -10 0 -12 80 -64 87 -56
8 8 -36 73 -64 96 -35 27 -53 25 -53 -5z"/>
<path d="M2323 893 c-7 -2 -13 -13 -13 -23 0 -14 6 -17 23 -13 51 11 53 13 33
29 -21 15 -24 15 -43 7z"/>
<path d="M2447 883 c-12 -12 -7 -23 9 -23 9 0 22 -8 29 -17 10 -14 17 -15 36
-6 24 10 24 10 -8 17 -19 4 -33 14 -33 22 0 14 -21 19 -33 7z"/>
<path d="M2270 840 c0 -5 7 -10 15 -10 8 0 15 5 15 10 0 6 -7 10 -15 10 -8 0
-15 -4 -15 -10z"/>
<path d="M1220 789 c0 -11 10 -34 23 -49 12 -15 27 -35 33 -45 6 -11 15 -15
22 -11 14 9 16 46 2 46 -5 0 -16 13 -25 30 -8 16 -24 34 -35 40 -17 9 -20 8
-20 -11z"/>
<path d="M2134 756 c-31 -27 -36 -36 -27 -48 7 -8 8 -19 3 -28 -11 -18 -3 -31
15 -23 8 3 26 2 40 -1 37 -9 34 -55 -4 -84 -30 -22 -30 -22 -36 -1 -7 21 -31
21 -29 1 1 -7 2 -36 3 -64 1 -50 2 -51 14 -28 7 14 21 26 32 28 13 2 31 23 49
58 25 48 27 58 16 78 -15 28 -4 54 36 85 15 12 25 23 23 25 -11 9 -74 36 -84
36 -6 0 -29 -15 -51 -34z"/>
<path d="M509 780 c0 -3 -5 -41 -11 -85 -9 -70 -12 -136 -10 -242 0 -16 0 -68
-1 -118 -2 -76 1 -90 14 -93 9 -2 19 5 23 14 11 28 7 507 -4 518 -5 5 -10 8
-11 6z"/>
<path d="M2000 755 c0 -8 9 -15 20 -15 11 0 23 0 28 -1 4 0 8 7 10 15 3 12 -5
16 -27 16 -21 0 -31 -5 -31 -15z"/>
<path d="M2373 763 c-7 -2 -13 -11 -13 -18 0 -7 -8 -28 -17 -47 -31 -61 -33
-68 -33 -88 0 -31 12 -24 43 25 28 44 49 56 62 35 3 -6 -1 -13 -9 -16 -10 -4
-16 -18 -16 -35 0 -36 16 -38 24 -4 4 14 15 34 26 45 24 24 26 48 4 57 -8 3
-20 16 -25 29 -8 23 -21 28 -46 17z"/>
<path d="M2535 730 c-4 -22 -11 -42 -16 -46 -5 -3 -9 -16 -9 -30 0 -14 -9 -42
-19 -62 -22 -42 -51 -107 -51 -115 0 -3 -15 -39 -34 -79 -19 -40 -44 -100 -56
-133 -12 -33 -27 -73 -34 -90 -7 -16 -20 -52 -28 -80 -33 -103 -33 -95 6 -95
29 0 36 4 36 19 0 11 4 22 9 25 5 4 12 24 16 47 4 22 13 53 21 67 8 15 14 35
14 44 0 9 6 29 14 45 27 55 58 135 76 198 4 17 18 55 30 85 12 30 26 71 32 90
5 19 14 39 19 44 5 6 9 32 9 58 0 62 -25 67 -35 8z"/>
<path d="M417 753 c-4 -3 -7 -18 -7 -32 0 -14 -7 -48 -15 -76 -9 -29 -13 -63
-9 -80 4 -16 6 -65 6 -108 -1 -48 2 -76 8 -72 6 3 10 17 10 29 0 13 7 37 15
52 11 21 15 62 15 150 0 80 4 124 12 132 9 9 7 12 -8 12 -12 0 -24 -3 -27 -7z"/>
<path d="M938 739 c-27 -15 -22 -60 11 -96 28 -31 38 -60 46 -133 3 -19 9 -57
14 -85 5 -27 6 -74 3 -103 -3 -36 0 -64 11 -90 8 -20 18 -66 21 -100 3 -35 8
-68 12 -73 6 -10 126 -12 162 -3 28 8 29 22 1 26 -28 4 -50 63 -58 156 -3 40
-11 76 -17 80 -6 4 -14 19 -18 35 -3 15 -11 27 -16 27 -6 0 -10 16 -10 35 0
26 -8 42 -37 70 -25 24 -31 35 -20 35 10 0 17 -4 17 -9 0 -5 14 -12 30 -16 17
-4 38 -18 47 -33 38 -59 86 -112 104 -112 34 0 29 18 -22 69 -36 36 -49 58
-47 74 2 12 8 22 13 22 17 0 36 16 30 26 -9 14 -37 11 -49 -7 -9 -12 -17 -13
-40 -5 -31 13 -30 36 2 36 12 0 21 5 21 10 0 6 -8 9 -17 8 -10 -1 -26 11 -37
28 -11 16 -30 32 -41 35 -27 7 -71 53 -76 78 -4 24 -17 29 -40 15z m150 -399
c1 -19 5 -42 9 -50 6 -16 4 -70 -4 -83 -11 -17 -34 34 -28 61 3 17 -1 40 -10
60 -18 35 -12 55 13 50 11 -2 18 -15 20 -38z"/>
<path d="M794 704 c-12 -46 2 -123 26 -149 13 -13 27 -22 33 -18 6 4 3 11 -6
18 -11 8 -17 27 -17 56 0 97 -21 152 -36 93z"/>
<path d="M646 694 c-8 -21 -1 -28 19 -20 9 3 15 11 13 18 -7 19 -25 20 -32 2z"/>
<path d="M1790 680 c0 -19 -32 -60 -47 -60 -16 0 -103 -64 -103 -76 0 -8 -4
-14 -8 -14 -5 0 -46 -36 -91 -80 -46 -44 -87 -80 -91 -80 -4 0 -27 -17 -51
-39 -24 -21 -53 -41 -64 -45 -29 -9 -66 -67 -59 -93 4 -14 -1 -32 -14 -48 -12
-14 -18 -34 -15 -45 7 -26 20 -17 38 26 9 23 24 38 45 45 35 13 36 17 13 36
-16 13 -15 14 15 10 26 -3 32 0 32 15 0 15 6 19 24 16 18 -2 35 9 70 47 25 28
46 53 46 56 0 9 100 115 100 106 0 -4 -11 -25 -25 -47 -14 -22 -25 -46 -25
-54 0 -8 -11 -37 -25 -64 -14 -28 -25 -53 -25 -57 0 -4 16 -5 35 -2 43 7 46
-7 10 -46 -31 -32 -45 -34 -52 -7 -7 28 -23 25 -23 -5 0 -14 -8 -29 -20 -35
-11 -6 -20 -17 -20 -25 0 -8 -6 -15 -14 -15 -8 0 -16 -7 -20 -15 -8 -21 -21
-19 -32 5 -9 19 -9 19 -34 0 -14 -10 -22 -21 -19 -24 2 -3 30 -8 62 -11 52 -5
57 -4 57 15 0 26 26 26 33 0 3 -13 14 -20 30 -20 20 0 29 9 46 48 25 55 36 74
74 123 15 20 27 41 27 47 0 5 7 15 15 22 8 7 15 20 15 30 0 9 14 36 30 58 17
23 30 48 30 56 0 8 6 21 13 28 7 7 16 21 20 31 3 9 13 17 22 17 9 0 15 9 15
21 0 11 3 19 8 17 4 -2 19 -10 34 -17 26 -13 30 -12 66 20 22 19 51 43 65 54
45 35 34 45 -46 42 -67 -2 -76 0 -106 26 -38 32 -61 35 -61 7z m6 -100 c-15
-22 -31 -52 -36 -65 -5 -14 -17 -25 -25 -25 -18 0 -32 29 -19 39 5 3 27 30 49
58 47 63 74 57 31 -7z m-66 -116 c0 -9 -16 -35 -35 -58 -19 -24 -35 -48 -35
-54 0 -25 -25 -62 -42 -62 -25 0 -24 51 2 75 11 10 20 26 20 35 0 10 7 20 15
24 8 3 15 12 15 20 0 16 26 35 48 36 6 0 12 -7 12 -16z"/>
<path d="M690 609 c0 -24 4 -30 18 -27 10 2 18 14 20 31 3 22 -1 27 -17 27
-17 0 -21 -6 -21 -31z"/>
<path d="M1315 620 c-9 -15 4 -30 26 -30 25 0 25 16 0 30 -13 7 -22 7 -26 0z"/>
<path d="M2820 600 c0 -5 -9 -10 -20 -10 -23 0 -27 -18 -5 -26 26 -10 17 -24
-27 -44 -54 -24 -198 -161 -198 -188 0 -6 -7 -12 -15 -16 -8 -3 -15 -11 -15
-17 0 -14 -47 -59 -61 -59 -5 0 -9 -5 -9 -11 0 -6 -11 -25 -25 -43 -14 -18
-25 -39 -25 -48 0 -8 -7 -23 -15 -34 -8 -10 -15 -30 -15 -43 0 -14 -7 -33 -17
-43 -15 -17 -15 -18 3 -18 26 0 44 19 44 46 0 12 7 27 15 34 8 7 15 18 15 25
0 7 9 24 20 37 10 14 17 28 14 30 -2 3 2 11 11 18 8 7 15 17 15 22 0 13 131
143 153 151 10 4 15 11 12 17 -3 6 4 10 18 10 16 0 28 9 38 28 22 43 65 82 98
88 44 9 61 32 36 50 -10 8 -25 14 -32 14 -7 0 -13 5 -13 10 0 6 8 10 18 10 9
0 24 5 32 10 11 7 7 10 -17 10 -18 0 -33 -4 -33 -10z"/>
<path d="M590 563 c0 -5 5 -15 10 -23 8 -12 10 -11 10 8 0 12 -4 22 -10 22 -5
0 -10 -3 -10 -7z"/>
<path d="M2275 549 c-4 -6 -5 -13 -2 -16 7 -7 27 6 27 18 0 12 -17 12 -25 -2z"/>
<path d="M271 513 c-1 -12 4 -25 10 -28 6 -4 8 -22 5 -44 -4 -23 -1 -46 9 -65
8 -15 15 -39 15 -51 0 -13 6 -30 14 -37 7 -8 17 -28 20 -45 4 -18 14 -37 22
-44 20 -17 17 -47 -6 -59 -17 -9 -28 -5 -69 30 -27 23 -68 64 -91 91 -23 28
-50 49 -61 49 -25 0 -24 -6 6 -42 27 -32 32 -57 13 -76 -9 -9 -7 -13 7 -18 11
-5 22 -1 30 9 17 24 27 21 49 -11 11 -16 32 -37 48 -48 15 -10 28 -23 28 -27
0 -5 6 -15 13 -22 6 -8 18 -21 25 -30 17 -20 49 -19 54 3 8 30 -1 156 -13 179
-9 17 -9 29 1 53 14 35 5 54 -14 27 -7 -9 -16 -17 -20 -17 -10 0 -7 48 4 55 6
3 10 13 10 21 0 11 -8 14 -27 12 -26 -3 -28 0 -35 46 -4 27 -11 52 -15 55 -5
3 -14 17 -20 31 -11 24 -12 24 -12 3z"/>
<path d="M1246 515 c-8 -21 3 -45 21 -45 12 0 14 -7 10 -28 -7 -34 0 -47 31
-56 16 -5 22 -3 22 7 0 8 -7 17 -15 21 -13 5 -13 9 -3 25 10 16 9 23 -3 38 -9
10 -19 26 -22 36 -8 21 -33 22 -41 2z"/>
<path d="M2620 505 c-7 -8 -16 -15 -21 -15 -13 0 -59 -50 -59 -65 0 -31 18
-21 59 32 23 30 40 57 38 59 -2 3 -10 -2 -17 -11z"/>
<path d="M840 485 c0 -9 5 -15 11 -13 6 2 11 8 11 13 0 5 -5 11 -11 13 -6 2
-11 -4 -11 -13z"/>
<path d="M1962 454 c4 -21 22 -23 26 -1 2 10 -3 17 -13 17 -10 0 -15 -6 -13
-16z"/>
<path d="M2171 431 c-16 -10 -6 -31 14 -31 11 0 25 20 25 36 0 7 -24 4 -39 -5z"/>
<path d="M1370 406 c0 -17 5 -26 16 -26 10 0 14 7 12 22 -5 32 -28 35 -28 4z"/>
<path d="M2860 360 c0 -5 7 -10 15 -10 8 0 15 5 15 10 0 6 -7 10 -15 10 -8 0
-15 -4 -15 -10z"/>
<path d="M2670 303 c-36 -25 -84 -63 -108 -85 -34 -31 -39 -40 -26 -45 10 -4
22 0 29 10 7 10 17 17 24 17 6 0 11 4 11 9 0 5 8 12 18 15 9 3 33 20 52 38 19
18 44 37 55 43 20 11 34 45 18 45 -5 0 -38 -21 -73 -47z"/>
<path d="M2780 255 c0 -8 5 -15 10 -15 6 0 10 7 10 15 0 8 -4 15 -10 15 -5 0
-10 -7 -10 -15z"/>
<path d="M2124 218 c-4 -6 1 -17 12 -25 20 -15 30 -4 20 22 -6 18 -22 19 -32
3z"/>
<path d="M2910 215 c-7 -8 -18 -15 -26 -15 -7 0 -28 -6 -46 -14 -18 -7 -64
-24 -103 -36 -66 -22 -155 -75 -155 -92 0 -4 -7 -8 -15 -8 -8 0 -15 -7 -15
-15 0 -8 3 -15 6 -15 14 0 104 45 104 52 0 5 11 8 24 8 13 0 29 7 36 15 7 8
23 15 35 15 12 0 28 7 35 15 7 8 19 15 27 15 22 0 100 49 107 67 9 22 1 27
-14 8z"/>
<path d="M495 190 c-3 -5 3 -10 15 -10 12 0 18 5 15 10 -3 6 -10 10 -15 10 -5
0 -12 -4 -15 -10z"/>
<path d="M2940 155 c-7 -8 -22 -15 -33 -15 -27 0 -67 -45 -67 -76 0 -30 12
-31 25 -2 6 12 24 26 40 31 17 5 37 16 46 23 8 8 23 14 32 14 10 0 17 8 17 20
0 24 -41 28 -60 5z"/>
<path d="M2116 103 c9 -38 12 -40 28 -17 16 21 5 44 -20 44 -11 0 -13 -7 -8
-27z"/>
<path d="M510 102 c-5 -2 -10 -14 -10 -27 0 -28 28 -37 72 -24 18 5 121 7 230
5 178 -4 224 1 205 20 -2 2 -69 10 -147 16 -109 8 -145 8 -148 0 -6 -18 -118
-16 -125 3 -6 13 -46 17 -77 7z"/>
<path d="M112 88 c-17 -17 -15 -35 4 -42 20 -8 183 5 189 15 8 12 -52 21 -94
14 -28 -5 -46 -2 -63 9 -19 12 -27 13 -36 4z"/>
<path d="M1288 58 c9 -9 15 -9 24 0 9 9 7 12 -12 12 -19 0 -21 -3 -12 -12z"/>
<path d="M2730 60 c0 -5 -11 -12 -25 -16 -14 -3 -25 -10 -25 -15 0 -5 -10 -14
-22 -19 -19 -7 -16 -9 20 -9 23 -1 42 3 42 8 0 6 14 18 30 28 37 21 38 33 5
33 -14 0 -25 -4 -25 -10z"/>
<path d="M1696 41 c-3 -5 1 -11 9 -15 15 -6 29 7 18 18 -9 9 -21 8 -27 -3z"/>
<path d="M2945 30 c-4 -6 7 -10 24 -10 17 0 31 5 31 10 0 6 -11 10 -24 10 -14
0 -28 -4 -31 -10z"/>
</g>
</svg>
